<svg width="200" height="124" viewBox="0 0 200 124" fill="none" xmlns="http://www.w3.org/2000/svg">
<path fill-rule="evenodd" clip-rule="evenodd" d="M0 60.8076V0H52.1208V8.6868H60.8076V26.0604H52.1208V34.7472H60.8076V52.1208H52.1208V60.8076H50.9018C49.6858 58.238 47.8833 55.9529 45.4332 54.069C44.4842 53.3311 43.4828 52.6839 42.4355 52.1208H43.434V34.7472H17.3736V50.8828C14.6396 51.9826 12.1192 53.5695 9.86868 55.6804C8.23245 57.2021 6.82943 58.9089 5.71748 60.8076H0ZM17.3736 26.0604H43.434V8.6868H17.3736V26.0604Z" fill="black"/>
<path d="M42.9031 60.8076H14.2086C14.287 60.7321 14.3664 60.6571 14.4469 60.5824C15.5872 59.5112 16.8332 58.6152 18.185 57.8945C21.0313 56.3768 24.3463 55.6362 28.1299 55.6726C33.7641 55.6726 38.1642 56.9067 41.3301 59.3751C41.9059 59.8165 42.4302 60.294 42.9031 60.8076Z" fill="black"/>
<path d="M78.1812 60.8076V52.1208H95.5548V8.6868H78.1812V0H130.302V8.6868H112.928V52.1208H130.302V60.8076H78.1812Z" fill="black"/>
<path d="M138.989 0V60.8076H156.362V26.0604H165.049V34.7472H173.736V43.434H182.423V60.8076H199.796V0H182.423V26.0604H173.736V17.3736H165.049V8.6868H156.362V0H138.989Z" fill="black"/>
<path d="M46.6232 120.973C47.6591 121.142 48.7338 121.3 49.8473 121.446C51.7702 121.672 53.7496 121.864 55.7856 122.022C57.8215 122.158 59.8122 122.226 61.7577 122.226C65.2415 122.226 68.5217 121.921 71.5982 121.31C74.6748 120.699 77.3668 119.851 79.6743 118.765C81.9817 117.679 83.8027 116.378 85.1374 114.863C86.4721 113.324 87.1395 111.639 87.1395 109.807V82.7961C87.1395 80.9637 86.4721 79.2897 85.1374 77.774C83.8027 76.2357 81.9817 74.9236 79.6743 73.8378C77.3668 72.7519 74.6748 71.9036 71.5982 71.2928C68.5217 70.682 65.2415 70.3766 61.7577 70.3766C59.8122 70.3766 57.8215 70.4558 55.7856 70.6142C54.7972 70.6801 53.8221 70.7593 52.8604 70.8518C52.8109 73.5167 52.4767 76.187 51.8774 78.8587C52.1177 78.8125 52.3685 78.7677 52.6298 78.7241C53.7157 78.5205 55.0164 78.3622 56.5321 78.2491C58.0477 78.1133 59.8349 78.0455 61.8935 78.0455C64.4271 78.0455 66.7006 78.2491 68.714 78.6562C70.7499 79.0634 72.4579 79.6064 73.8378 80.285C75.2404 80.9637 76.3149 81.7554 77.0614 82.6603C77.8079 83.5426 78.1812 84.4701 78.1812 85.4428V107.16C78.1812 108.133 77.8079 109.071 77.0614 109.976C76.3149 110.858 75.2404 111.639 73.8378 112.318C72.4579 112.996 70.7499 113.539 68.714 113.946C66.7006 114.354 64.4271 114.557 61.8935 114.557C59.8349 114.557 58.0477 114.501 56.5321 114.387C56.2895 114.366 56.0525 114.343 55.8209 114.321C54.7051 115.665 53.3897 116.884 51.9146 117.974C50.2576 119.197 48.4881 120.192 46.6232 120.973Z" fill="black"/>
<path d="M48.1846 103.856V112.387C48.1008 112.451 48.016 112.515 47.9301 112.578C45.6974 114.227 43.1128 115.359 40.1765 115.974V107.953C41.75 107.771 43.1541 107.381 44.3886 106.783C44.4508 106.751 44.5126 106.718 44.5741 106.686C45.5465 106.166 46.4362 105.538 47.2434 104.803C47.5707 104.505 47.8845 104.19 48.1846 103.856Z" fill="black"/>
<path d="M40.1765 90.2944C40.4857 89.7333 40.7897 89.166 41.0886 88.5924C44.1707 82.7218 45.8477 77.0965 46.1199 71.7166C45.5637 71.8083 45.0191 71.9045 44.4859 72.0054C42.8119 72.3221 41.3754 72.6615 40.1765 73.0234V90.2944Z" fill="black"/>
<path d="M41.7057 100.58L41.6782 100.62L41.7057 100.604V100.58Z" fill="black"/>
<path d="M46.4431 102.95C46.4427 102.948 46.4424 102.946 46.4422 102.947C46.4415 102.947 46.4428 102.967 46.4482 103.005C46.4467 102.982 46.4452 102.967 46.4441 102.957C46.4437 102.954 46.4434 102.952 46.4431 102.95Z" fill="black"/>
<path d="M184.595 70.4106C181.541 69.7998 178.306 69.4944 174.89 69.4944C172.605 69.4944 170.399 69.6301 168.273 69.9016C166.146 70.173 164.144 70.5689 162.267 71.0892C160.412 71.5869 158.715 72.1977 157.177 72.9216C155.661 73.6455 154.349 74.4599 153.241 75.3648C152.155 76.2696 151.306 77.265 150.696 78.3509C150.085 79.4367 149.779 80.5791 149.779 81.7781V110.96C149.779 112.159 150.085 113.302 150.696 114.387C151.306 115.451 152.155 116.435 153.241 117.34C154.349 118.245 155.661 119.059 157.177 119.783C158.715 120.484 160.412 121.095 162.267 121.615C164.144 122.113 166.146 122.497 168.273 122.769C170.399 123.04 172.605 123.176 174.89 123.176C177.175 123.176 179.38 123.04 181.507 122.769C183.633 122.497 185.624 122.113 187.479 121.615C189.356 121.095 191.053 120.484 192.569 119.783C194.107 119.059 195.419 118.245 196.505 117.34C197.613 116.435 198.473 115.451 199.084 114.387C199.695 113.302 200 112.159 200 110.96V104.988H191.042V108.381C191.042 109.332 190.668 110.248 189.922 111.13C189.175 111.99 188.101 112.747 186.698 113.403C185.318 114.059 183.633 114.591 181.642 114.998C179.652 115.383 177.401 115.575 174.89 115.575C172.469 115.575 170.264 115.394 168.273 115.032C166.282 114.648 164.574 114.139 163.149 113.505C161.724 112.849 160.615 112.08 159.824 111.198C159.054 110.316 158.67 109.377 158.67 108.381V84.4248C158.67 83.3842 159.054 82.4228 159.824 81.5405C160.615 80.6357 161.724 79.8552 163.149 79.1992C164.574 78.5431 166.282 78.0341 168.273 77.6722C170.264 77.2876 172.469 77.0953 174.89 77.0953C177.401 77.0953 179.652 77.2989 181.642 77.7061C183.633 78.0907 185.318 78.6223 186.698 79.301C188.101 79.957 189.175 80.7375 189.922 81.6423C190.668 82.5246 191.042 83.4521 191.042 84.4248V87.7502H200V81.7781C200 79.9683 199.333 78.3169 197.998 76.8239C196.663 75.3082 194.854 74.0075 192.569 72.9216C190.307 71.8358 187.648 70.9987 184.595 70.4106Z" fill="black"/>
<path d="M119.579 70.4445C123.063 70.4445 126.75 70.5689 130.641 70.8178C134.555 71.0666 138.627 71.553 142.857 72.2769V80.8958C140.957 80.3529 139.034 79.9118 137.089 79.5724C135.143 79.2105 133.186 78.9277 131.218 78.7241C129.273 78.5205 127.327 78.3735 125.382 78.283C123.436 78.1925 121.502 78.1359 119.579 78.1133C118.652 78.1133 117.622 78.1359 116.491 78.1812C115.383 78.2038 114.195 78.2491 112.928 78.3169C111.684 78.3848 110.372 78.4866 108.992 78.6223C107.612 78.758 106.21 78.9277 104.785 79.1313V91.4829H134.442V99.8303H104.785V113.471C106.979 113.788 109.264 114.026 111.639 114.184C114.014 114.342 116.661 114.421 119.579 114.421C123.515 114.421 127.429 114.229 131.32 113.845C135.211 113.46 139.057 112.725 142.857 111.639V120.258C138.627 120.982 134.566 121.468 130.675 121.717C126.784 121.966 123.131 122.09 119.715 122.09C116.231 122.09 112.533 121.966 108.619 121.717C104.728 121.468 100.645 120.982 96.3692 120.258V72.2769C100.645 71.553 104.728 71.0666 108.619 70.8178C112.51 70.5689 116.163 70.4445 119.579 70.4445Z" fill="black"/>
<path d="M10.8249 71.0459C10.1273 71.0459 9.77852 70.4825 9.77852 69.3556C9.77852 68.2288 10.181 66.8337 10.9859 65.1702C11.7907 63.5068 12.9444 61.9775 14.4469 60.5824C17.9884 57.2555 22.5494 55.6189 28.1299 55.6726C33.7641 55.6726 38.1642 56.9067 41.3301 59.3751C44.5496 61.8434 46.1594 65.4385 46.1594 70.1605C46.1594 76.0094 44.4691 82.1533 41.0886 88.5924C37.7617 94.9778 33.791 100.585 29.1763 105.415C32.6105 107.185 35.5617 108.071 38.03 108.071C40.4984 108.071 42.6179 107.641 44.3886 106.783C46.1594 105.871 47.6618 104.61 48.896 103C50.1838 101.336 51.2033 100.505 51.9546 100.505C52.7595 100.505 53.1619 101.417 53.1619 103.241C53.1619 106.89 51.418 110.002 47.9301 112.578C44.4423 115.154 40.0959 116.468 34.891 116.522C32.6373 116.522 30.4909 116.093 28.4519 115.234C26.4128 114.376 24.4543 113.41 22.5762 112.337C19.303 115.878 15.0371 117.649 9.77852 117.649C6.45166 117.649 4.01017 116.817 2.45406 115.154C0.897945 113.49 0.119889 111.29 0.119889 108.554C0.119889 105.817 1.11258 103.778 3.09797 102.436C5.13701 101.041 7.90046 100.344 11.3883 100.344C14.9298 100.344 17.9884 100.773 20.564 101.632L22.1738 99.6194C29.7397 88.2436 33.5227 78.746 33.5227 71.1264C33.5227 68.6581 32.8251 66.7532 31.43 65.4117C30.0348 64.0702 28.2909 63.3995 26.1982 63.3995C24.1592 63.3995 22.4957 63.5873 21.2079 63.9629C19.0079 64.6068 17.2371 65.68 15.8957 67.1824C14.0176 69.7581 12.3273 71.0459 10.8249 71.0459ZM15.4932 108.071C13.6688 107.158 12.1127 106.702 10.8249 106.702C10.0736 106.702 9.40291 106.917 8.81266 107.346C8.22241 107.722 7.92729 108.312 7.92729 109.117C7.92729 109.922 8.22241 110.512 8.81266 110.888C9.45657 111.21 10.1005 111.371 10.7444 111.371C11.9249 111.371 13.5078 110.271 15.4932 108.071Z" fill="black"/>
</svg>
