<svg width="80" height="50" viewBox="0 0 80 50" fill="none" xmlns="http://www.w3.org/2000/svg">
<path fill-rule="evenodd" clip-rule="evenodd" d="M0 24.323V0H20.8483V3.47472H24.323V10.4242H20.8483V13.8989H24.323V20.8483H20.8483V24.323H20.3607C19.8743 23.2952 19.1533 22.3811 18.1733 21.6276C17.7937 21.3324 17.3931 21.0736 16.9742 20.8483H17.3736V13.8989H6.94944V20.3531C5.85585 20.793 4.8477 21.4278 3.94747 22.2722C3.29298 22.8808 2.73177 23.5636 2.28699 24.323H0ZM6.94944 10.4242H17.3736V3.47472H6.94944V10.4242Z" fill="white"/>
<path d="M17.1612 24.323H5.68343C5.7148 24.2929 5.74657 24.2628 5.77875 24.233C6.23488 23.8045 6.73329 23.4461 7.27398 23.1578C8.41251 22.5507 9.73851 22.2545 11.252 22.269C13.5057 22.269 15.2657 22.7627 16.532 23.75C16.7624 23.9266 16.9721 24.1176 17.1612 24.323Z" fill="white"/>
<path d="M31.2725 24.323V20.8483H38.2219V3.47472H31.2725V0H52.1208V3.47472H45.1714V20.8483H52.1208V24.323H31.2725Z" fill="white"/>
<path d="M55.5955 0V24.323H62.545V10.4242H66.0197V13.8989H69.4944V17.3736H72.9691V24.323H79.9186V0H72.9691V10.4242H69.4944V6.94944H66.0197V3.47472H62.545V0H55.5955Z" fill="white"/>
<path d="M18.6493 48.3892C19.0636 48.4569 19.4935 48.5199 19.9389 48.5782C20.7081 48.6687 21.4998 48.7456 22.3142 48.809C23.1286 48.8633 23.9249 48.8904 24.7031 48.8904C26.0966 48.8904 27.4087 48.7682 28.6393 48.5239C29.8699 48.2796 30.9467 47.9403 31.8697 47.5059C32.7927 47.0716 33.5211 46.5513 34.055 45.945C34.5889 45.3297 34.8558 44.6556 34.8558 43.9226V33.1184C34.8558 32.3855 34.5889 31.7159 34.055 31.1096C33.5211 30.4943 32.7927 29.9695 31.8697 29.5351C30.9467 29.1008 29.8699 28.7615 28.6393 28.5171C27.4087 28.2728 26.0966 28.1507 24.7031 28.1507C23.9249 28.1507 23.1286 28.1823 22.3142 28.2457C21.9189 28.272 21.5288 28.3037 21.1441 28.3407C21.1244 29.4067 20.9907 30.4748 20.7509 31.5435C20.8471 31.525 20.9474 31.5071 21.0519 31.4897C21.4863 31.4082 22.0066 31.3449 22.6128 31.2996C23.2191 31.2453 23.9339 31.2182 24.7574 31.2182C25.7708 31.2182 26.6802 31.2996 27.4856 31.4625C28.3 31.6254 28.9831 31.8426 29.5351 32.114C30.0961 32.3855 30.526 32.7022 30.8246 33.0641C31.1232 33.417 31.2725 33.788 31.2725 34.1771V42.8639C31.2725 43.253 31.1232 43.6285 30.8246 43.9905C30.526 44.3434 30.0961 44.6556 29.5351 44.927C28.9831 45.1985 28.3 45.4157 27.4856 45.5786C26.6802 45.7414 25.7708 45.8229 24.7574 45.8229C23.9339 45.8229 23.2191 45.8002 22.6128 45.755C22.5158 45.7463 22.421 45.7374 22.3284 45.7282C21.882 46.266 21.3559 46.7537 20.7658 47.1895C20.103 47.6789 19.3952 48.0767 18.6493 48.3892Z" fill="white"/>
<path d="M19.2738 41.5425V44.9547C19.2403 44.9803 19.2064 45.0058 19.1721 45.0312C18.279 45.6907 17.2451 46.1435 16.0706 46.3897V43.181C16.7 43.1085 17.2616 42.9526 17.7555 42.7131C17.7803 42.7003 17.805 42.6874 17.8296 42.6742C18.2186 42.4662 18.5745 42.2153 18.8973 41.9214C19.0283 41.8021 19.1538 41.6759 19.2738 41.5425Z" fill="white"/>
<path d="M16.0706 36.1178C16.1943 35.8933 16.3159 35.6664 16.4354 35.437C17.6683 33.0887 18.3391 30.8386 18.4479 28.6866C18.2255 28.7233 18.0076 28.7618 17.7944 28.8022C17.1248 28.9289 16.5502 29.0646 16.0706 29.2094V36.1178Z" fill="white"/>
<path d="M16.6823 40.2321L16.6713 40.2481L16.6823 40.2415V40.2321Z" fill="white"/>
<path d="M18.5772 41.1801C18.5771 41.179 18.5769 41.1786 18.5769 41.1786C18.5766 41.1789 18.5771 41.187 18.5793 41.2019C18.5787 41.1929 18.5781 41.1867 18.5776 41.1829C18.5775 41.1817 18.5774 41.1808 18.5772 41.1801Z" fill="white"/>
<path d="M73.8378 28.1642C72.6162 27.9199 71.3223 27.7978 69.9559 27.7978C69.042 27.7978 68.1597 27.8521 67.3091 27.9606C66.4585 28.0692 65.6577 28.2276 64.9067 28.4357C64.1647 28.6348 63.486 28.8791 62.8707 29.1686C62.2645 29.4582 61.7396 29.784 61.2962 30.1459C60.8619 30.5079 60.5226 30.906 60.2783 31.3403C60.0339 31.7747 59.9118 32.2316 59.9118 32.7112V44.3841C59.9118 44.8637 60.0339 45.3207 60.2783 45.755C60.5226 46.1803 60.8619 46.5739 61.2962 46.9359C61.7396 47.2978 62.2645 47.6236 62.8707 47.9131C63.486 48.1936 64.1647 48.438 64.9067 48.6461C65.6577 48.8451 66.4585 48.999 67.3091 49.1076C68.1597 49.2161 69.042 49.2704 69.9559 49.2704C70.8698 49.2704 71.7521 49.2161 72.6026 49.1076C73.4532 48.999 74.2495 48.8451 74.9915 48.6461C75.7426 48.438 76.4212 48.1936 77.0275 47.9131C77.6428 47.6236 78.1676 47.2978 78.602 46.9359C79.0454 46.5739 79.3892 46.1803 79.6335 45.755C79.8778 45.3207 80 44.8637 80 44.3841V41.9952H76.4167V43.3526C76.4167 43.7326 76.2674 44.0991 75.9688 44.452C75.6702 44.7958 75.2404 45.099 74.6793 45.3614C74.1274 45.6238 73.4532 45.8364 72.6569 45.9993C71.8606 46.1531 70.9603 46.2301 69.9559 46.2301C68.9877 46.2301 68.1054 46.1577 67.3091 46.0129C66.5128 45.8591 65.8297 45.6555 65.2596 45.4021C64.6895 45.1397 64.2461 44.832 63.9294 44.4791C63.6218 44.1262 63.4679 43.7507 63.4679 43.3526V33.7699C63.4679 33.3537 63.6218 32.9691 63.9294 32.6162C64.2461 32.2543 64.6895 31.9421 65.2596 31.6797C65.8297 31.4173 66.5128 31.2137 67.3091 31.0689C68.1054 30.9151 68.9877 30.8381 69.9559 30.8381C70.9603 30.8381 71.8606 30.9196 72.6569 31.0825C73.4532 31.2363 74.1274 31.4489 74.6793 31.7204C75.2404 31.9828 75.6702 32.295 75.9688 32.6569C76.2674 33.0098 76.4167 33.3808 76.4167 33.7699V35.1001H80V32.7112C80 31.9873 79.7331 31.3268 79.1992 30.7296C78.6653 30.1233 77.9414 29.603 77.0275 29.1686C76.1226 28.7343 75.0594 28.3995 73.8378 28.1642Z" fill="white"/>
<path d="M47.8317 28.1778C49.2252 28.1778 50.7002 28.2276 52.2565 28.3271C53.822 28.4266 55.4507 28.6212 57.1429 28.9108V32.3583C56.3828 32.1412 55.6136 31.9647 54.8354 31.829C54.0572 31.6842 53.2745 31.5711 52.4873 31.4897C51.7091 31.4082 50.9309 31.3494 50.1527 31.3132C49.3745 31.277 48.6008 31.2544 47.8317 31.2453C47.4607 31.2453 47.049 31.2544 46.5965 31.2725C46.1532 31.2815 45.6781 31.2996 45.1714 31.3268C44.6737 31.3539 44.1489 31.3946 43.5969 31.4489C43.0449 31.5032 42.4839 31.5711 41.9138 31.6525V36.5931H53.7767V39.9321H41.9138V45.3885C42.7915 45.5152 43.7055 45.6102 44.6556 45.6736C45.6057 45.7369 46.6644 45.7686 47.8317 45.7686C49.4062 45.7686 50.9716 45.6917 52.528 45.5378C54.0844 45.384 55.6227 45.0899 57.1429 44.6556V48.1032C55.4507 48.3927 53.8265 48.5873 52.2701 48.6868C50.7137 48.7863 49.2523 48.8361 47.886 48.8361C46.4925 48.8361 45.013 48.7863 43.4476 48.6868C41.8912 48.5873 40.2579 48.3927 38.5477 48.1032V28.9108C40.2579 28.6212 41.8912 28.4266 43.4476 28.3271C45.004 28.2276 46.4653 28.1778 47.8317 28.1778Z" fill="white"/>
<path d="M4.32995 28.4184C4.05092 28.4184 3.91141 28.193 3.91141 27.7423C3.91141 27.2915 4.07239 26.7335 4.39434 26.0681C4.7163 25.4027 5.17776 24.791 5.77875 24.233C7.19535 22.9022 9.01976 22.2476 11.252 22.269C13.5057 22.269 15.2657 22.7627 16.532 23.75C17.8198 24.7374 18.4638 26.1754 18.4638 28.0642C18.4638 30.4037 17.7877 32.8613 16.4354 35.437C15.1047 37.9911 13.5164 40.2341 11.6705 42.1658C13.0442 42.8741 14.2247 43.2283 15.212 43.2283C16.1993 43.2283 17.0472 43.0566 17.7555 42.7131C18.4638 42.3483 19.0647 41.8439 19.5584 41.2C20.0735 40.5346 20.4813 40.2019 20.7818 40.2019C21.1038 40.2019 21.2648 40.5668 21.2648 41.2965C21.2648 42.7561 20.5672 44.001 19.1721 45.0312C17.7769 46.0615 16.0384 46.5873 13.9564 46.6088C13.0549 46.6088 12.1964 46.4371 11.3808 46.0937C10.5651 45.7503 9.78171 45.3639 9.03049 44.9346C7.72121 46.3512 6.01485 47.0595 3.91141 47.0595C2.58066 47.0595 1.60407 46.7268 0.981624 46.0615C0.359178 45.3961 0.0479555 44.5161 0.0479555 43.4214C0.0479555 42.3268 0.445033 41.5112 1.23919 40.9746C2.05481 40.4165 3.16018 40.1375 4.55532 40.1375C5.97192 40.1375 7.19535 40.3092 8.2256 40.6526L8.86951 39.8478C11.8959 35.2975 13.4091 31.4984 13.4091 28.4506C13.4091 27.4632 13.13 26.7013 12.572 26.1647C12.0139 25.6281 11.3164 25.3598 10.4793 25.3598C9.66366 25.3598 8.99829 25.4349 8.48316 25.5852C7.60316 25.8427 6.89486 26.272 6.35826 26.873C5.60704 27.9032 4.93093 28.4184 4.32995 28.4184ZM6.19729 43.2283C5.46752 42.8634 4.84508 42.681 4.32995 42.681C4.02946 42.681 3.76116 42.7668 3.52506 42.9385C3.28896 43.0888 3.17091 43.3249 3.17091 43.6468C3.17091 43.9688 3.28896 44.2049 3.52506 44.3551C3.78263 44.4839 4.04019 44.5483 4.29776 44.5483C4.76996 44.5483 5.40313 44.1083 6.19729 43.2283Z" fill="white"/>
</svg>
