<svg width="140" height="193" viewBox="0 0 140 193" fill="none" xmlns="http://www.w3.org/2000/svg">
<path d="M0 46.336C0 39.0827 0.64 32.5973 1.92 26.88C3.2 21.0773 5.12 16.2133 7.68 12.288C10.24 8.27733 13.4827 5.248 17.408 3.2C21.3333 1.06667 25.984 0 31.36 0C37.0773 0 41.8987 1.024 45.824 3.072C49.8347 5.12 53.0773 8.10666 55.552 12.032C58.0267 15.9573 59.8187 20.8213 60.928 26.624C62.0373 32.3413 62.592 38.912 62.592 46.336C62.592 53.5893 61.952 60.1173 60.672 65.92C59.392 71.6373 57.472 76.5013 54.912 80.512C52.352 84.4373 49.1093 87.4667 45.184 89.6C41.2587 91.648 36.608 92.672 31.232 92.672C25.6 92.672 20.7787 91.5627 16.768 89.344C12.8427 87.04 9.6 83.84 7.04 79.744C4.56533 75.648 2.77333 70.784 1.664 65.152C0.554667 59.4347 0 53.1627 0 46.336ZM52.096 46.336C52.096 41.8133 51.84 37.504 51.328 33.408L13.312 68.096C14.7627 72.96 16.9387 76.8427 19.84 79.744C22.7413 82.6453 26.5387 84.096 31.232 84.096C38.7413 84.096 44.0747 80.9813 47.232 74.752C50.4747 68.5227 52.096 59.0507 52.096 46.336ZM10.624 46.336C10.624 48.4693 10.6667 50.5173 10.752 52.48C10.9227 54.4427 11.0933 56.3627 11.264 58.24L49.408 23.68C47.9573 19.072 45.7813 15.4027 42.88 12.672C40.064 9.94133 36.224 8.576 31.36 8.576C23.7653 8.576 18.3893 11.7333 15.232 18.048C12.16 24.2773 10.624 33.7067 10.624 46.336Z" fill="white"/>
<path d="M85.966 81.92H106.062V14.592L85.582 28.928L80.59 21.632L108.75 1.536H115.918V81.92H135.63V91.136H85.966V81.92Z" fill="white"/>
<path d="M9.216 181.92H29.312V114.592L8.832 128.928L3.84 121.632L32 101.536H39.168V181.92H58.88V191.136H9.216V181.92Z" fill="white"/>
<path d="M76.75 146.336C76.75 139.083 77.39 132.597 78.67 126.88C79.95 121.077 81.87 116.213 84.43 112.288C86.99 108.277 90.2327 105.248 94.158 103.2C98.0833 101.067 102.734 100 108.11 100C113.827 100 118.649 101.024 122.574 103.072C126.585 105.12 129.827 108.107 132.302 112.032C134.777 115.957 136.569 120.821 137.678 126.624C138.787 132.341 139.342 138.912 139.342 146.336C139.342 153.589 138.702 160.117 137.422 165.92C136.142 171.637 134.222 176.501 131.662 180.512C129.102 184.437 125.859 187.467 121.934 189.6C118.009 191.648 113.358 192.672 107.982 192.672C102.35 192.672 97.5287 191.563 93.518 189.344C89.5927 187.04 86.35 183.84 83.79 179.744C81.3153 175.648 79.5233 170.784 78.414 165.152C77.3047 159.435 76.75 153.163 76.75 146.336ZM128.846 146.336C128.846 141.813 128.59 137.504 128.078 133.408L90.062 168.096C91.5127 172.96 93.6887 176.843 96.59 179.744C99.4913 182.645 103.289 184.096 107.982 184.096C115.491 184.096 120.825 180.981 123.982 174.752C127.225 168.523 128.846 159.051 128.846 146.336ZM87.374 146.336C87.374 148.469 87.4167 150.517 87.502 152.48C87.6727 154.443 87.8433 156.363 88.014 158.24L126.158 123.68C124.707 119.072 122.531 115.403 119.63 112.672C116.814 109.941 112.974 108.576 108.11 108.576C100.515 108.576 95.1393 111.733 91.982 118.048C88.91 124.277 87.374 133.707 87.374 146.336Z" fill="white"/>
</svg>
