<svg width="41" height="40" viewBox="0 0 41 40" fill="none" xmlns="http://www.w3.org/2000/svg">
<path fill-rule="evenodd" clip-rule="evenodd" d="M38.0001 2.66667H3.33341V37.3333H38.0001V2.66667ZM0.666748 0V40H40.6667V0H0.666748Z" fill="white"/>
<path d="M20.6667 5.33333C12.5671 5.33333 6.00008 11.9003 6.00008 20C6.00008 26.8726 10.7325 32.6231 17.1125 34.2144C17.0441 34.0164 17.0001 33.7867 17.0001 33.5019V30.9951C16.4049 30.9951 15.4075 30.9951 15.157 30.9951C14.1535 30.9951 13.2613 30.5637 12.8286 29.7619C12.3483 28.8709 12.2652 27.5081 11.0747 26.6746C10.7215 26.3971 10.9904 26.0806 11.3974 26.1233C12.1491 26.336 12.7724 26.8518 13.3591 27.6169C13.9433 28.3832 14.2183 28.5568 15.3097 28.5568C15.839 28.5568 16.631 28.5262 17.3765 28.4089C17.7774 27.3908 18.4704 26.4533 19.3174 26.0109C14.4334 25.5086 12.1026 23.0788 12.1026 19.78C12.1026 18.3598 12.7076 16.986 13.7355 15.8286C13.3982 14.6797 12.9741 12.3367 13.8651 11.4444C16.0626 11.4444 17.3912 12.8696 17.7102 13.2546C18.8053 12.8793 20.008 12.6667 21.2717 12.6667C22.538 12.6667 23.7455 12.8793 24.8431 13.257C25.1584 12.8744 26.4882 11.4444 28.6906 11.4444C29.5853 12.3379 29.1563 14.6907 28.8153 15.8371C29.8371 16.9921 30.4384 18.3622 30.4384 19.78C30.4384 23.0763 28.1113 25.5049 23.2346 26.0097C24.5766 26.71 25.5556 28.6778 25.5556 30.1603V33.5019C25.5556 33.629 25.5275 33.7207 25.5129 33.8294C31.228 31.8262 35.3334 26.3996 35.3334 20C35.3334 11.9003 28.7664 5.33333 20.6667 5.33333Z" fill="white"/>
</svg>
