<svg width="42" height="40" viewBox="0 0 42 40" fill="none" xmlns="http://www.w3.org/2000/svg">
<path d="M12.6667 34.6667H6.00008V14.6667H12.6667V34.6667ZM9.33475 12C7.49075 12 6.00008 10.5053 6.00008 8.66533C6.00008 6.82533 7.49341 5.33333 9.33475 5.33333C11.1721 5.33333 12.6667 6.828 12.6667 8.66533C12.6667 10.5053 11.1721 12 9.33475 12ZM36.6667 34.6667H30.2574V24.9333C30.2574 22.612 30.2134 19.6267 26.9254 19.6267C23.5881 19.6267 23.0747 22.1547 23.0747 24.7653V34.6667H16.6667V14.652H22.8187V17.3867H22.9054C23.7614 15.8133 25.8534 14.1547 28.9734 14.1547C35.4667 14.1547 36.6667 18.3 36.6667 23.6893V34.6667Z" fill="white"/>
<path fill-rule="evenodd" clip-rule="evenodd" d="M39.3334 2.66667H3.33341V37.3333H39.3334V2.66667ZM0.666748 0V40H42.0001V0H0.666748Z" fill="white"/>
</svg>
